# xmcd CD database file
#
# Track frame offsets:
#	182
#	26057
#	46662
#	67047
#	92845
#	115020
#	136920
#	161990
#
# Disc length: 2471 seconds
#
# Revision: 2
# Processed by: cddbd v1.5PL3 Copyright (c) Steve Scherf et al.
# Submitted via: CDex 1.50
#
DISCID=6809a508
DTITLE=Oquesta Xariz - Señor te Amo!
DYEAR=2004
DGENRE=Salsa
TTITLE0=Nadie Te Amara Como Cristo
TTITLE1=Special Feelings
TTITLE2=Camino Real
TTITLE3=Esclavo De Cristo
TTITLE4=Señor Te Amo
TTITLE5=Amar A Nuestros Enemigos
TTITLE6=God I Want To Know You
TTITLE7=Sonrisa
EXTD=YEAR: 2004
EXTT0=
EXTT1=
EXTT2=
EXTT3=
EXTT4=
EXTT5=
EXTT6=
EXTT7=
PLAYORDER=
